<?xml version="1.0" encoding="utf-8"?>
<!-- Generator: Adobe Illustrator 28.2.0, SVG Export Plug-In . SVG Version: 6.00 Build 0)  -->
<svg version="1.1" xmlns="http://www.w3.org/2000/svg" xmlns:xlink="http://www.w3.org/1999/xlink" x="0px" y="0px"
	 viewBox="0 0 408 147.7" style="enable-background:new 0 0 408 147.7;" xml:space="preserve">
<style type="text/css">
	.st0{fill:#F13200;}
	.st1{fill:#CCCBCA;}
	.st2{fill:#231F20;}
</style>
<g id="Layer_1">
</g>
<g id="GRAPHICS">
	<g>
		<g>
			<path class="st0" d="M105.3,13.8l6.3,6.3v84.3l-6.3,6.3H20.9l-6.3-6.3V20.2l6.4-6.4H105.3 M106.1,11.8h-86l-7.6,7.6v86.1l7.5,7.5
				h86.1l7.6-7.6V19.3L106.1,11.8L106.1,11.8z"/>
			<path class="st1" d="M117.9,2.1l6.3,6.3v109.5l-6.3,6.3H114h-2.1v2.1v16.4l-17.8-17.9l-0.6-0.6h-0.9H8.3l-6.2-6.2V8.4l6.3-6.3
				H117.9 M118.7,0H7.6L0,7.6v111.2l7.4,7.4h85.2l21.4,21.5v-21.5h4.7l7.5-7.5V7.5L118.7,0L118.7,0z"/>
			<g>
				<path class="st0" d="M33.7,51.5h5v17.6h10.9v4.1H33.7V51.5z"/>
				<path class="st0" d="M66,52.4c1.4,0.6,2.5,1.5,3.3,2.7c0.8,1.2,1.1,2.6,1.1,4.2c0,1.6-0.4,3-1.1,4.2c-0.8,1.2-1.9,2.1-3.3,2.7
					c-1.4,0.6-3.1,0.9-5,0.9h-4.4v6h-5V51.5H61C62.9,51.5,64.6,51.8,66,52.4z M64.1,62.1c0.8-0.7,1.2-1.6,1.2-2.8
					c0-1.2-0.4-2.2-1.2-2.8s-1.9-1-3.4-1h-4.1v7.5h4.1C62.2,63.1,63.4,62.8,64.1,62.1z"/>
				<path class="st0" d="M75.5,70.9c-1.7-1.7-2.6-4.2-2.6-7.3V51.5h5v12c0,3.9,1.6,5.8,4.8,5.8c1.6,0,2.8-0.5,3.6-1.4
					c0.8-0.9,1.2-2.4,1.2-4.4v-12h5v12.1c0,3.2-0.9,5.6-2.6,7.3c-1.7,1.7-4.1,2.6-7.2,2.6S77.2,72.7,75.5,70.9z"/>
			</g>
		</g>
		<g>
			<path class="st2" d="M146.1,25.9h6v32.5h-6V25.9z"/>
			<path class="st2" d="M189.3,25.9v32.5h-5l-17.9-22v22h-6V25.9h5l17.9,22v-22H189.3z"/>
			<path class="st2" d="M202.2,31v9.9h15.7V46h-15.7v12.4h-6V25.9h23.7V31H202.2z"/>
			<path class="st2" d="M248.6,53.4v5.1h-24.4V25.9h23.7V31h-17.7v8.5h15.7v5h-15.7v9H248.6z"/>
			<path class="st2" d="M276.1,58.5l-6.6-9.5c-0.3,0-0.7,0-1.3,0h-7.3v9.5h-6V25.9h13.4c2.8,0,5.3,0.5,7.4,1.4
				c2.1,0.9,3.7,2.3,4.8,4c1.1,1.7,1.7,3.8,1.7,6.2c0,2.4-0.6,4.6-1.8,6.3c-1.2,1.8-2.9,3.1-5.1,3.9l7.5,10.7H276.1z M273.9,32.7
				c-1.4-1.1-3.4-1.7-6-1.7h-7.1v13h7.1c2.6,0,4.6-0.6,6-1.7s2-2.7,2-4.8C276,35.4,275.3,33.8,273.9,32.7z"/>
			<path class="st2" d="M311.6,53.4v5.1h-24.4V25.9h23.7V31h-17.7v8.5h15.7v5h-15.7v9H311.6z"/>
			<path class="st2" d="M345.6,25.9v32.5h-5l-17.9-22v22h-6V25.9h5l17.9,22v-22H345.6z"/>
			<path class="st2" d="M357.7,56.8c-2.6-1.4-4.7-3.4-6.2-6c-1.5-2.5-2.3-5.4-2.3-8.6s0.8-6.1,2.3-8.6c1.5-2.5,3.6-4.5,6.2-6
				c2.6-1.4,5.6-2.2,8.9-2.2c2.7,0,5.1,0.5,7.3,1.4c2.2,0.9,4.1,2.3,5.6,4l-3.9,3.7c-2.4-2.5-5.2-3.8-8.7-3.8c-2.2,0-4.2,0.5-6,1.5
				c-1.8,1-3.1,2.3-4.1,4.1c-1,1.7-1.5,3.7-1.5,5.9s0.5,4.2,1.5,5.9c1,1.7,2.4,3.1,4.1,4.1c1.8,1,3.8,1.5,6,1.5
				c3.4,0,6.3-1.3,8.7-3.9l3.9,3.7c-1.5,1.8-3.4,3.1-5.6,4c-2.2,0.9-4.7,1.4-7.3,1.4C363.3,58.9,360.3,58.2,357.7,56.8z"/>
			<path class="st2" d="M408,53.4v5.1h-24.4V25.9h23.7V31h-17.7v8.5h15.7v5h-15.7v9H408z"/>
			<path class="st2" d="M170.4,95.7v5.1h-24.4V68.2h23.7v5.1h-17.7v8.5h15.7v5h-15.7v9H170.4z"/>
			<path class="st2" d="M205.6,68.2v32.5h-5l-17.9-22v22h-6V68.2h5l17.9,22v-22H205.6z"/>
			<path class="st2" d="M234.4,84.1h5.7v13c-1.7,1.3-3.6,2.4-5.9,3.1c-2.2,0.7-4.5,1.1-6.9,1.1c-3.3,0-6.3-0.7-9-2.2
				c-2.7-1.4-4.8-3.4-6.3-6c-1.5-2.5-2.3-5.4-2.3-8.6s0.8-6.1,2.3-8.6c1.5-2.5,3.6-4.5,6.3-6c2.7-1.4,5.7-2.2,9-2.2
				c2.7,0,5.2,0.4,7.4,1.3c2.2,0.9,4.1,2.2,5.6,3.9l-3.8,3.7c-2.5-2.5-5.5-3.7-9-3.7c-2.3,0-4.3,0.5-6.1,1.4c-1.8,1-3.2,2.3-4.2,4
				c-1,1.7-1.5,3.7-1.5,5.9c0,2.2,0.5,4.1,1.5,5.9c1,1.7,2.4,3.1,4.2,4.1c1.8,1,3.8,1.5,6.1,1.5c2.5,0,4.8-0.6,6.7-1.7V84.1z"/>
			<path class="st2" d="M246.4,68.2h6v32.5h-6V68.2z"/>
			<path class="st2" d="M289.7,68.2v32.5h-5l-17.9-22v22h-6V68.2h5l17.9,22v-22H289.7z"/>
			<path class="st2" d="M321.2,95.7v5.1h-24.4V68.2h23.7v5.1h-17.7v8.5h15.7v5h-15.7v9H321.2z"/>
		</g>
	</g>
</g>
</svg>
